<?xml version="1.0" encoding="utf-8"?>
<!-- created with dmn-js / http://bpmn.io -->
<!DOCTYPE svg PUBLIC "-//W3C//DTD SVG 1.1//EN" "http://www.w3.org/Graphics/SVG/1.1/DTD/svg11.dtd">
<svg xmlns="http://www.w3.org/2000/svg" xmlns:xlink="http://www.w3.org/1999/xlink" width="465" height="274" viewBox="162 85 465 274" version="1.1"><defs><pattern id="djs-grid-pattern-124575" width="10" height="10" patternUnits="userSpaceOnUse"><circle cx="0.5" cy="0.5" r="0.5" style="fill: rgb(204, 204, 204);"></circle></pattern><marker id="information-requirement-end-white-hsl_225_10_15_-89qzpf8w9skqc81xxmpz9vkof" viewBox="0 0 20 20" refX="11" refY="10" markerWidth="20" markerHeight="20" orient="auto"><path d="M 1 5 L 11 10 L 1 15 Z" style="stroke-width: 1px; stroke-linecap: round; stroke-dasharray: 10000, 1; fill: rgb(34, 36, 42); stroke: none;"></path></marker></defs><g class="djs-group"><g class="djs-element djs-shape" data-element-id="Decision_1rc370u" style="display: block;" transform="matrix(1 0 0 1 320 90)"><g class="djs-visual"><rect x="0" y="0" width="180" height="80" rx="0" ry="0" style="stroke: rgb(34, 36, 42); stroke-width: 2px; fill: white;"/><text lineHeight="1.2" class="djs-label" style="font-family: Arial, sans-serif; font-size: 12px; font-weight: normal; fill: rgb(34, 36, 42);"><tspan x="46.3134765625" y="43.599999999999994">Assignar Pedido</tspan></text></g><rect class="djs-hit djs-hit-all" x="0" y="0" width="180" height="80" style="fill: none; stroke-opacity: 0; stroke: white; stroke-width: 15px;"/><rect x="-5" y="-5" rx="4" width="190" height="90" class="djs-outline" style="fill: none;"/></g></g><g class="djs-group"><g class="djs-element djs-shape" data-element-id="InputData_0lzjn73" style="display: block;" transform="matrix(1 0 0 1 167 308)"><g class="djs-visual"><rect x="0" y="0" width="125" height="45" rx="22" ry="22" style="stroke: rgb(34, 36, 42); stroke-width: 2px; fill: white;"/><text lineHeight="1.2" class="djs-label" style="font-family: Arial, sans-serif; font-size: 12px; font-weight: normal; fill: rgb(34, 36, 42);"><tspan x="35.1484375" y="26.1">Prioridade</tspan></text></g><rect class="djs-hit djs-hit-all" x="0" y="0" width="125" height="45" style="fill: none; stroke-opacity: 0; stroke: white; stroke-width: 15px;"/><rect x="-5" y="-5" rx="27" width="135" height="55" class="djs-outline" style="fill: none;"/></g></g><g class="djs-group"><g class="djs-element djs-shape" data-element-id="InputData_04o4dkr" style="display: block;" transform="matrix(1 0 0 1 497 309)"><g class="djs-visual"><rect x="0" y="0" width="125" height="45" rx="22" ry="22" style="stroke: rgb(34, 36, 42); stroke-width: 2px; fill: white;"/><text lineHeight="1.2" class="djs-label" style="font-family: Arial, sans-serif; font-size: 12px; font-weight: normal; fill: rgb(34, 36, 42);"><tspan x="33.8125" y="26.1">Tecnologia</tspan></text></g><rect class="djs-hit djs-hit-all" x="0" y="0" width="125" height="45" style="fill: none; stroke-opacity: 0; stroke: white; stroke-width: 15px;"/><rect x="-5" y="-5" rx="27" width="135" height="55" class="djs-outline" style="fill: none;"/></g></g><g class="djs-group"><g class="djs-element djs-connection" data-element-id="InformationRequirement_0vkqz49" style="display: block;"><g class="djs-visual"><path style="fill: none; stroke: rgb(34, 36, 42); stroke-width: 1px; stroke-linecap: round; stroke-linejoin: round; marker-end: url('#information-requirement-end-white-hsl_225_10_15_-89qzpf8w9skqc81xxmpz9vkof');" d="M230,308L380,190L380,170"/></g><path d="M230,308L380,190L380,170" class="djs-hit djs-hit-stroke" style="fill: none; stroke-opacity: 0; stroke: white; stroke-width: 15px;"/><rect x="225" y="165" rx="4" width="160" height="148" class="djs-outline" style="fill: none;"/></g></g><g class="djs-group"><g class="djs-element djs-connection" data-element-id="InformationRequirement_1t9dv40" style="display: block;"><g class="djs-visual"><path style="fill: none; stroke: rgb(34, 36, 42); stroke-width: 1px; stroke-linecap: round; stroke-linejoin: round; marker-end: url('#information-requirement-end-white-hsl_225_10_15_-89qzpf8w9skqc81xxmpz9vkof');" d="M560,309L440,190L440,170"/></g><path d="M560,309L440,190L440,170" class="djs-hit djs-hit-stroke" style="fill: none; stroke-opacity: 0; stroke: white; stroke-width: 15px;"/><rect x="435" y="165" rx="4" width="130" height="149" class="djs-outline" style="fill: none;"/></g></g></svg>