<?xml version="1.0" encoding="utf-8"?>
<!-- created with bpmn-js / http://bpmn.io -->
<!DOCTYPE svg PUBLIC "-//W3C//DTD SVG 1.1//EN" "http://www.w3.org/Graphics/SVG/1.1/DTD/svg11.dtd">
<svg xmlns="http://www.w3.org/2000/svg" xmlns:xlink="http://www.w3.org/1999/xlink" width="1260" height="740" viewBox="155 75 1260 740" version="1.1"><defs><pattern id="djs-grid-pattern-310678" width="10" height="10" patternUnits="userSpaceOnUse"><circle cx="0.5" cy="0.5" r="0.5" style="fill: rgb(204, 204, 204);"/></pattern></defs><g class="djs-group"><g class="djs-element djs-shape" data-element-id="Participant_0kywfj1" style="display: block;" transform="matrix(1 0 0 1 160 80)"><g class="djs-visual"><rect x="0" y="0" width="1250" height="140" rx="0" ry="0" style="stroke-linecap: round; stroke-linejoin: round; stroke: rgb(34, 36, 42); stroke-width: 1.5px; fill: white; fill-opacity: 0.95;"/><path style="fill: none; stroke-linecap: round; stroke-linejoin: round; stroke: rgb(34, 36, 42); stroke-width: 1.5px;" d="M30,0L30,140"/><text lineHeight="1.2" class="djs-label" style="font-family: Arial, sans-serif; font-size: 12px; font-weight: normal; fill: rgb(34, 36, 42);" transform="matrix(-1.83697e-16 -1 1 -1.83697e-16 0 140)"><tspan x="22.536457061767578" y="18.6">Comarca/Tribunal</tspan></text></g><rect class="djs-hit djs-hit-no-move" x="0" y="0" width="1250" height="140" style="fill: none; stroke-opacity: 0; stroke: white; stroke-width: 15px;"/><rect class="djs-hit djs-hit-click-stroke" x="0" y="0" width="1250" height="140" style="fill: none; stroke-opacity: 0; stroke: white; stroke-width: 15px;"/><rect class="djs-hit djs-hit-all" x="0" y="0" width="30" height="140" style="fill: none; stroke-opacity: 0; stroke: white; stroke-width: 15px;"/><rect x="-5" y="-5" rx="4" width="1260" height="150" class="djs-outline" style="fill: none;"/></g><g class="djs-children"><g class="djs-group"><g class="djs-element djs-shape" data-element-id="Activity_02ou6fy" style="display: block;" transform="matrix(1 0 0 1 290 100)"><g class="djs-visual"><rect x="0" y="0" width="100" height="80" rx="10" ry="10" style="stroke-linecap: round; stroke-linejoin: round; stroke: rgb(34, 36, 42); stroke-width: 2px; fill: white; fill-opacity: 0.95;"/><text lineHeight="1.2" class="djs-label" style="font-family: Arial, sans-serif; font-size: 12px; font-weight: normal; fill: rgb(34, 36, 42);"><tspan x="10.302082061767578" y="29.200000000000003">Efetuar Pedido </tspan><tspan x="14.307289123535156" y="43.6">Configuração </tspan><tspan x="31.32291603088379" y="58">Custas</tspan></text><path d="m 5.984999999999999,4.997999999999999 l 0,14 l 21,0 l 0,-14 z l 10.5,6 l 10.5,-6" style="fill: rgb(34, 36, 42); stroke-linecap: round; stroke-linejoin: round; stroke: white; stroke-width: 1px;"/></g><rect class="djs-hit djs-hit-all" x="0" y="0" width="100" height="80" style="fill: none; stroke-opacity: 0; stroke: white; stroke-width: 15px;"/><rect x="-5" y="-5" rx="14" width="110" height="90" class="djs-outline" style="fill: none;"/></g></g><g class="djs-group"><g class="djs-element djs-shape" data-element-id="Event_0o7z180" style="display: block;" transform="matrix(1 0 0 1 212 122)"><g class="djs-visual"><circle cx="18" cy="18" r="18" style="stroke-linecap: round; stroke-linejoin: round; stroke: rgb(32, 80, 34); stroke-width: 2px; fill: rgb(200, 230, 201); fill-opacity: 0.95;"/></g><rect class="djs-hit djs-hit-all" x="0" y="0" width="36" height="36" style="fill: none; stroke-opacity: 0; stroke: white; stroke-width: 15px;"/><circle cx="18" cy="18" r="23" class="djs-outline" style="fill: none;"/></g></g><g class="djs-group"><g class="djs-element djs-connection" data-element-id="Flow_13ug68w" style="display: block;"><g class="djs-visual"><defs><marker id="marker-1qiax9fnup0yuzp3kt0fbg92c" viewBox="0 0 20 20" refX="11" refY="10" markerWidth="10" markerHeight="10" orient="auto"><path d="M 1 5 L 11 10 L 1 15 Z" style="stroke-linecap: round; stroke-linejoin: round; stroke: rgb(34, 36, 42); stroke-width: 1px; fill: rgb(34, 36, 42);"/></marker></defs><path data-corner-radius="5" style="fill: none; stroke-linecap: round; stroke-linejoin: round; stroke: rgb(34, 36, 42); stroke-width: 2px; marker-end: url('#marker-1qiax9fnup0yuzp3kt0fbg92c');" d="M248,140L290,140"/></g><path d="M248,140L290,140" class="djs-hit djs-hit-stroke" style="fill: none; stroke-opacity: 0; stroke: white; stroke-width: 15px;"/><rect x="243" y="135" rx="4" width="52" height="10" class="djs-outline" style="fill: none;"/></g></g></g></g><g class="djs-group"><g class="djs-element djs-shape" data-element-id="Participant_0knhzs2" style="display: block;" transform="matrix(1 0 0 1 160 290)"><g class="djs-visual"><rect x="0" y="0" width="1250" height="520" rx="0" ry="0" style="stroke-linecap: round; stroke-linejoin: round; stroke: rgb(34, 36, 42); stroke-width: 1.5px; fill: white; fill-opacity: 0.95;"/><path style="fill: none; stroke-linecap: round; stroke-linejoin: round; stroke: rgb(34, 36, 42); stroke-width: 1.5px;" d="M30,0L30,520"/><text lineHeight="1.2" class="djs-label" style="font-family: Arial, sans-serif; font-size: 12px; font-weight: normal; fill: rgb(34, 36, 42);" transform="matrix(-1.83697e-16 -1 1 -1.83697e-16 0 520)"><tspan x="242.9947910308838" y="18.6">IGFEJ</tspan></text></g><rect class="djs-hit djs-hit-no-move" x="0" y="0" width="1250" height="520" style="fill: none; stroke-opacity: 0; stroke: white; stroke-width: 15px;"/><rect class="djs-hit djs-hit-click-stroke" x="0" y="0" width="1250" height="520" style="fill: none; stroke-opacity: 0; stroke: white; stroke-width: 15px;"/><rect class="djs-hit djs-hit-all" x="0" y="0" width="30" height="520" style="fill: none; stroke-opacity: 0; stroke: white; stroke-width: 15px;"/><rect x="-5" y="-5" rx="4" width="1260" height="530" class="djs-outline" style="fill: none;"/></g><g class="djs-children"><g class="djs-group"><g class="djs-element djs-shape" data-element-id="Lane_029tkmq" style="display: block;" transform="matrix(1 0 0 1 190 650)"><g class="djs-visual"><rect x="0" y="0" width="1220" height="160" rx="0" ry="0" style="stroke-linecap: round; stroke-linejoin: round; stroke: rgb(34, 36, 42); stroke-width: 1.5px; fill: white; fill-opacity: 0.25;"/><text lineHeight="1.2" class="djs-label" style="font-family: Arial, sans-serif; font-size: 12px; font-weight: normal; fill: rgb(34, 36, 42);" transform="matrix(-1.83697e-16 -1 1 -1.83697e-16 0 160)"><tspan x="11.625" y="18.6">Núcleo Gestão de Custas</tspan></text></g><rect class="djs-hit djs-hit-no-move" x="0" y="0" width="1220" height="160" style="fill: none; stroke-opacity: 0; stroke: white; stroke-width: 15px;"/><rect class="djs-hit djs-hit-click-stroke" x="0" y="0" width="1220" height="160" style="fill: none; stroke-opacity: 0; stroke: white; stroke-width: 15px;"/><rect class="djs-hit djs-hit-all" x="0" y="0" width="30" height="160" style="fill: none; stroke-opacity: 0; stroke: white; stroke-width: 15px;"/><rect x="-5" y="-5" rx="4" width="1230" height="170" class="djs-outline" style="fill: none;"/></g></g><g class="djs-group"><g class="djs-element djs-shape" data-element-id="Lane_1jvp9yz" style="display: block;" transform="matrix(1 0 0 1 190 290)"><g class="djs-visual"><rect x="0" y="0" width="1220" height="360" rx="0" ry="0" style="stroke-linecap: round; stroke-linejoin: round; stroke: rgb(34, 36, 42); stroke-width: 1.5px; fill: white; fill-opacity: 0.25;"/><text lineHeight="1.2" class="djs-label" style="font-family: Arial, sans-serif; font-size: 12px; font-weight: normal; fill: rgb(34, 36, 42);" transform="matrix(-1.83697e-16 -1 1 -1.83697e-16 0 360)"><tspan x="151.9899082183838" y="18.6">Help Desk</tspan></text></g><rect class="djs-hit djs-hit-no-move" x="0" y="0" width="1220" height="360" style="fill: none; stroke-opacity: 0; stroke: white; stroke-width: 15px;"/><rect class="djs-hit djs-hit-click-stroke" x="0" y="0" width="1220" height="360" style="fill: none; stroke-opacity: 0; stroke: white; stroke-width: 15px;"/><rect class="djs-hit djs-hit-all" x="0" y="0" width="30" height="360" style="fill: none; stroke-opacity: 0; stroke: white; stroke-width: 15px;"/><rect x="-5" y="-5" rx="4" width="1230" height="370" class="djs-outline" style="fill: none;"/></g></g><g class="djs-group"><g class="djs-element djs-shape" data-element-id="Activity_00gezk1" style="display: block;" transform="matrix(1 0 0 1 290 412)"><g class="djs-visual"><rect x="0" y="0" width="100" height="80" rx="10" ry="10" style="stroke-linecap: round; stroke-linejoin: round; stroke: rgb(34, 36, 42); stroke-width: 2px; fill: white; fill-opacity: 0.95;"/><text lineHeight="1.2" class="djs-label" style="font-family: Arial, sans-serif; font-size: 12px; font-weight: normal; fill: rgb(34, 36, 42);"><tspan x="26.98600196838379" y="36.4">Receber </tspan><tspan x="31.3125" y="50.8">Pedido</tspan></text><path d="m 6.3,5.6000000000000005 l 0,12.6 l 18.900000000000002,0 l 0,-12.6 z l 9.450000000000001,5.4 l 9.450000000000001,-5.4" style="fill: white; stroke-linecap: round; stroke-linejoin: round; stroke: rgb(34, 36, 42); stroke-width: 1px;"/></g><rect class="djs-hit djs-hit-all" x="0" y="0" width="100" height="80" style="fill: none; stroke-opacity: 0; stroke: white; stroke-width: 15px;"/><rect x="-5" y="-5" rx="14" width="110" height="90" class="djs-outline" style="fill: none;"/></g></g><g class="djs-group"><g class="djs-element djs-shape" data-element-id="Activity_04ifmdf" style="display: block;" transform="matrix(1 0 0 1 473 412)"><g class="djs-visual"><rect x="0" y="0" width="100" height="80" rx="10" ry="10" style="stroke-linecap: round; stroke-linejoin: round; stroke: rgb(34, 36, 42); stroke-width: 2px; fill: white; fill-opacity: 0.95;"/><text lineHeight="1.2" class="djs-label" style="font-family: Arial, sans-serif; font-size: 12px; font-weight: normal; fill: rgb(34, 36, 42);"><tspan x="30.65624874830246" y="29.200000000000003">Verifica </tspan><tspan x="19.984375" y="43.6">Informação </tspan><tspan x="26.984375" y="58">recebida</tspan></text></g><rect class="djs-hit djs-hit-all" x="0" y="0" width="100" height="80" style="fill: none; stroke-opacity: 0; stroke: white; stroke-width: 15px;"/><rect x="-5" y="-5" rx="14" width="110" height="90" class="djs-outline" style="fill: none;"/></g></g><g class="djs-group"><g class="djs-element djs-shape" data-element-id="Gateway_11yz0f5" style="display: block;" transform="matrix(1 0 0 1 665 427)"><g class="djs-visual"><polygon points="25,0 50,25 25,50 0,25" style="stroke-linecap: round; stroke-linejoin: round; stroke: rgb(34, 36, 42); stroke-width: 2px; fill: white; fill-opacity: 0.95;"/><path d="m 16,15 7.42857142857143,9.714285714285715 -7.42857142857143,9.714285714285715 3.428571428571429,0 5.714285714285715,-7.464228571428572 5.714285714285715,7.464228571428572 3.428571428571429,0 -7.42857142857143,-9.714285714285715 7.42857142857143,-9.714285714285715 -3.428571428571429,0 -5.714285714285715,7.464228571428572 -5.714285714285715,-7.464228571428572 -3.428571428571429,0 z" style="fill: rgb(34, 36, 42); stroke-linecap: round; stroke-linejoin: round; stroke: rgb(34, 36, 42); stroke-width: 1px;"/></g><rect class="djs-hit djs-hit-all" x="0" y="0" width="50" height="50" style="fill: none; stroke-opacity: 0; stroke: white; stroke-width: 15px;"/><rect x="2" y="2" rx="4" width="46" height="46" class="djs-outline" style="transform-box: fill-box; transform: rotate(45deg); transform-origin: center center; fill: none;"/></g></g><g class="djs-group"><g class="djs-element djs-shape" data-element-id="Activity_0e89s2g" style="display: block;" transform="matrix(1 0 0 1 640 690)"><g class="djs-visual"><rect x="0" y="0" width="100" height="80" rx="10" ry="10" style="stroke-linecap: round; stroke-linejoin: round; stroke: rgb(34, 36, 42); stroke-width: 2px; fill: white; fill-opacity: 0.95;"/><text lineHeight="1.2" class="djs-label" style="font-family: Arial, sans-serif; font-size: 12px; font-weight: normal; fill: rgb(34, 36, 42);"><tspan x="23.65201759338379" y="29.200000000000003">Identificar </tspan><tspan x="12.651039123535156" y="43.6">Utilizador, C1, </tspan><tspan x="20.317707061767578" y="58">C2, C3, C4</tspan></text><path d="m 8,8 0,12 20,0 0,-12 zm 0,8 l 20,0 m -13,-4 l 0,8" style="fill: white; stroke-linecap: round; stroke-linejoin: round; stroke: rgb(34, 36, 42); stroke-width: 1px;"/><path d="m 8,8 0,4 20,0 0,-4 z" style="fill: rgb(34, 36, 42); stroke-linecap: round; stroke-linejoin: round; stroke: rgb(34, 36, 42); stroke-width: 1px;"/></g><rect class="djs-hit djs-hit-all" x="0" y="0" width="100" height="80" style="fill: none; stroke-opacity: 0; stroke: white; stroke-width: 15px;"/><rect x="-5" y="-5" rx="14" width="110" height="90" class="djs-outline" style="fill: none;"/></g></g><g class="djs-group"><g class="djs-element djs-shape" data-element-id="Activity_1jzwgag" style="display: block;" transform="matrix(1 0 0 1 980 690)"><g class="djs-visual"><rect x="0" y="0" width="100" height="80" rx="10" ry="10" style="stroke-linecap: round; stroke-linejoin: round; stroke: rgb(34, 36, 42); stroke-width: 2px; fill: white; fill-opacity: 0.95;"/><text lineHeight="1.2" class="djs-label" style="font-family: Arial, sans-serif; font-size: 12px; font-weight: normal; fill: rgb(34, 36, 42);"><tspan x="32.65787696838379" y="29.200000000000003">Enviar </tspan><tspan x="9.979164123535156" y="43.6">Procedimentos </tspan><tspan x="16.316078186035156" y="58">ao Utilizador</tspan></text><path d="m 5.984999999999999,4.997999999999999 l 0,14 l 21,0 l 0,-14 z l 10.5,6 l 10.5,-6" style="fill: rgb(34, 36, 42); stroke-linecap: round; stroke-linejoin: round; stroke: white; stroke-width: 1px;"/></g><rect class="djs-hit djs-hit-all" x="0" y="0" width="100" height="80" style="fill: none; stroke-opacity: 0; stroke: white; stroke-width: 15px;"/><rect x="-5" y="-5" rx="14" width="110" height="90" class="djs-outline" style="fill: none;"/></g></g><g class="djs-group"><g class="djs-element djs-shape" data-element-id="Activity_07t8mni" style="display: block;" transform="matrix(1 0 0 1 870 412)"><g class="djs-visual"><rect x="0" y="0" width="100" height="80" rx="10" ry="10" style="stroke-linecap: round; stroke-linejoin: round; stroke: rgb(34, 36, 42); stroke-width: 2px; fill: white; fill-opacity: 0.95;"/><text lineHeight="1.2" class="djs-label" style="font-family: Arial, sans-serif; font-size: 12px; font-weight: normal; fill: rgb(34, 36, 42);"><tspan x="17.984375" y="36.4">Devolver ao </tspan><tspan x="18.640625" y="50.8">Requerente</tspan></text></g><rect class="djs-hit djs-hit-all" x="0" y="0" width="100" height="80" style="fill: none; stroke-opacity: 0; stroke: white; stroke-width: 15px;"/><rect x="-5" y="-5" rx="14" width="110" height="90" class="djs-outline" style="fill: none;"/></g></g><g class="djs-group"><g class="djs-element djs-shape" data-element-id="Event_1chi0sj" style="display: block;" transform="matrix(1 0 0 1 1042 434)"><g class="djs-visual"><circle cx="18" cy="18" r="18" style="stroke-linecap: round; stroke-linejoin: round; stroke: rgb(131, 19, 17); stroke-width: 4px; fill: rgb(255, 205, 210); fill-opacity: 0.95;"/></g><rect class="djs-hit djs-hit-all" x="0" y="0" width="36" height="36" style="fill: none; stroke-opacity: 0; stroke: white; stroke-width: 15px;"/><circle cx="18" cy="18" r="24" class="djs-outline" style="fill: none;"/></g></g><g class="djs-group"><g class="djs-element djs-shape" data-element-id="Activity_08ydkoz" style="display: block;" transform="matrix(1 0 0 1 640 530)"><g class="djs-visual"><rect x="0" y="0" width="100" height="80" rx="10" ry="10" style="stroke-linecap: round; stroke-linejoin: round; stroke: rgb(34, 36, 42); stroke-width: 2px; fill: white; fill-opacity: 0.95;"/><text lineHeight="1.2" class="djs-label" style="font-family: Arial, sans-serif; font-size: 12px; font-weight: normal; fill: rgb(34, 36, 42);"><tspan x="17.31249874830246" y="43.599999999999994">Abrir Pedido</tspan></text></g><rect class="djs-hit djs-hit-all" x="0" y="0" width="100" height="80" style="fill: none; stroke-opacity: 0; stroke: white; stroke-width: 15px;"/><rect x="-5" y="-5" rx="14" width="110" height="90" class="djs-outline" style="fill: none;"/></g></g><g class="djs-group"><g class="djs-element djs-shape" data-element-id="Activity_04mkecw" style="display: block;" transform="matrix(1 0 0 1 810 690)"><g class="djs-visual"><rect x="0" y="0" width="100" height="80" rx="10" ry="10" style="stroke-linecap: round; stroke-linejoin: round; stroke: rgb(34, 36, 42); stroke-width: 2px; fill: white; fill-opacity: 0.95;"/><text lineHeight="1.2" class="djs-label" style="font-family: Arial, sans-serif; font-size: 12px; font-weight: normal; fill: rgb(34, 36, 42);"><tspan x="28.32421875" y="29.200000000000003">Instalar/</tspan><tspan x="21.65104103088379" y="43.6">Configurar </tspan><tspan x="30.65624874830246" y="58">Acesso</tspan></text><circle cx="5" cy="5" r="5" transform="translate(6, 6)" style="stroke-linecap: round; stroke-linejoin: round; stroke: none; stroke-width: 2px; fill: white;"/><path d="m 12,18 v -1.71335 c 0.352326,-0.0705 0.703932,-0.17838 1.047628,-0.32133 0.344416,-0.14465 0.665822,-0.32133 0.966377,-0.52145 l 1.19431,1.18005 1.567487,-1.57688 -1.195028,-1.18014 c 0.403376,-0.61394 0.683079,-1.29908 0.825447,-2.01824 l 1.622133,-0.01 v -2.2196 l -1.636514,0.01 c -0.07333,-0.35153 -0.178319,-0.70024 -0.323564,-1.04372 -0.145244,-0.34406 -0.321407,-0.6644 -0.522735,-0.96217 l 1.131035,-1.13631 -1.583305,-1.56293 -1.129598,1.13589 c -0.614052,-0.40108 -1.302883,-0.68093 -2.022633,-0.82247 l 0.0093,-1.61852 h -2.241173 l 0.0042,1.63124 c -0.353763,0.0736 -0.705369,0.17977 -1.049785,0.32371 -0.344415,0.14437 -0.665102,0.32092 -0.9635006,0.52046 l -1.1698628,-1.15823 -1.5667691,1.5792 1.1684265,1.15669 c -0.4026573,0.61283 -0.68308,1.29797 -0.8247287,2.01713 l -1.6588041,0.003 v 2.22174 l 1.6724648,-0.006 c 0.073327,0.35077 0.1797598,0.70243 0.3242851,1.04472 0.1452428,0.34448 0.3214064,0.6644 0.5227339,0.96066 l -1.1993431,1.19723 1.5840256,1.56011 1.1964668,-1.19348 c 0.6140517,0.40346 1.3028827,0.68232 2.0233517,0.82331 l 7.19e-4,1.69892 h 2.226848 z m 0.221462,-3.9957 c -1.788948,0.7502 -3.8576,-0.0928 -4.6097055,-1.87438 -0.7521065,-1.78321 0.090598,-3.84627 1.8802645,-4.59604 1.78823,-0.74936 3.856881,0.0929 4.608987,1.87437 0.752106,1.78165 -0.0906,3.84612 -1.879546,4.59605 z" style="fill: white; stroke-linecap: round; stroke-linejoin: round; stroke: rgb(34, 36, 42); stroke-width: 1px;"/><circle cx="5" cy="5" r="5" transform="translate(11, 10)" style="stroke-linecap: round; stroke-linejoin: round; stroke: none; stroke-width: 2px; fill: white;"/><path d="m 17,22 v -1.71335 c 0.352326,-0.0705 0.703932,-0.17838 1.047628,-0.32133 0.344416,-0.14465 0.665822,-0.32133 0.966377,-0.52145 l 1.19431,1.18005 1.567487,-1.57688 -1.195028,-1.18014 c 0.403376,-0.61394 0.683079,-1.29908 0.825447,-2.01824 l 1.622133,-0.01 v -2.2196 l -1.636514,0.01 c -0.07333,-0.35153 -0.178319,-0.70024 -0.323564,-1.04372 -0.145244,-0.34406 -0.321407,-0.6644 -0.522735,-0.96217 l 1.131035,-1.13631 -1.583305,-1.56293 -1.129598,1.13589 c -0.614052,-0.40108 -1.302883,-0.68093 -2.022633,-0.82247 l 0.0093,-1.61852 h -2.241173 l 0.0042,1.63124 c -0.353763,0.0736 -0.705369,0.17977 -1.049785,0.32371 -0.344415,0.14437 -0.665102,0.32092 -0.9635006,0.52046 l -1.1698628,-1.15823 -1.5667691,1.5792 1.1684265,1.15669 c -0.4026573,0.61283 -0.68308,1.29797 -0.8247287,2.01713 l -1.6588041,0.003 v 2.22174 l 1.6724648,-0.006 c 0.073327,0.35077 0.1797598,0.70243 0.3242851,1.04472 0.1452428,0.34448 0.3214064,0.6644 0.5227339,0.96066 l -1.1993431,1.19723 1.5840256,1.56011 1.1964668,-1.19348 c 0.6140517,0.40346 1.3028827,0.68232 2.0233517,0.82331 l 7.19e-4,1.69892 h 2.226848 z m 0.221462,-3.9957 c -1.788948,0.7502 -3.8576,-0.0928 -4.6097055,-1.87438 -0.7521065,-1.78321 0.090598,-3.84627 1.8802645,-4.59604 1.78823,-0.74936 3.856881,0.0929 4.608987,1.87437 0.752106,1.78165 -0.0906,3.84612 -1.879546,4.59605 z" style="fill: white; stroke-linecap: round; stroke-linejoin: round; stroke: rgb(34, 36, 42); stroke-width: 1px;"/></g><rect class="djs-hit djs-hit-all" x="0" y="0" width="100" height="80" style="fill: none; stroke-opacity: 0; stroke: white; stroke-width: 15px;"/><rect x="-5" y="-5" rx="14" width="110" height="90" class="djs-outline" style="fill: none;"/></g></g><g class="djs-group"><g class="djs-element djs-shape" data-element-id="Activity_11whnzt" style="display: block;" transform="matrix(1 0 0 1 1150 690)"><g class="djs-visual"><rect x="0" y="0" width="100" height="80" rx="10" ry="10" style="stroke-linecap: round; stroke-linejoin: round; stroke: rgb(34, 36, 42); stroke-width: 2px; fill: white; fill-opacity: 0.95;"/><text lineHeight="1.2" class="djs-label" style="font-family: Arial, sans-serif; font-size: 12px; font-weight: normal; fill: rgb(34, 36, 42);"><tspan x="10.973957061767578" y="43.599999999999994">Fechar Pedido</tspan></text></g><rect class="djs-hit djs-hit-all" x="0" y="0" width="100" height="80" style="fill: none; stroke-opacity: 0; stroke: white; stroke-width: 15px;"/><rect x="-5" y="-5" rx="14" width="110" height="90" class="djs-outline" style="fill: none;"/></g></g><g class="djs-group"><g class="djs-element djs-shape" data-element-id="Event_100gh6s" style="display: block;" transform="matrix(1 0 0 1 1322 712)"><g class="djs-visual"><circle cx="18" cy="18" r="18" style="stroke-linecap: round; stroke-linejoin: round; stroke: rgb(131, 19, 17); stroke-width: 4px; fill: rgb(255, 205, 210); fill-opacity: 0.95;"/></g><rect class="djs-hit djs-hit-all" x="0" y="0" width="36" height="36" style="fill: none; stroke-opacity: 0; stroke: white; stroke-width: 15px;"/><circle cx="18" cy="18" r="24" class="djs-outline" style="fill: none;"/></g></g><g class="djs-group"><g class="djs-element djs-connection" data-element-id="Flow_10irsfz" style="display: block;"><g class="djs-visual"><defs><marker id="marker-6xc5e827mc392x292phobip8p" viewBox="0 0 20 20" refX="11" refY="10" markerWidth="10" markerHeight="10" orient="auto"><path d="M 1 5 L 11 10 L 1 15 Z" style="stroke-linecap: round; stroke-linejoin: round; stroke: rgb(34, 36, 42); stroke-width: 1px; fill: rgb(34, 36, 42);"/></marker></defs><path data-corner-radius="5" style="fill: none; stroke-linecap: round; stroke-linejoin: round; stroke: rgb(34, 36, 42); stroke-width: 2px; marker-end: url('#marker-6xc5e827mc392x292phobip8p');" d="M390,452L473,452"/></g><path d="M390,452L473,452" class="djs-hit djs-hit-stroke" style="fill: none; stroke-opacity: 0; stroke: white; stroke-width: 15px;"/><rect x="385" y="447" rx="4" width="93" height="10" class="djs-outline" style="fill: none;"/></g></g><g class="djs-group"><g class="djs-element djs-connection" data-element-id="Flow_1dc0e7b" style="display: block;"><g class="djs-visual"><defs><marker id="marker-2div9v8bu8vb216f1dxgj4ms1" viewBox="0 0 20 20" refX="11" refY="10" markerWidth="10" markerHeight="10" orient="auto"><path d="M 1 5 L 11 10 L 1 15 Z" style="stroke-linecap: round; stroke-linejoin: round; stroke: rgb(34, 36, 42); stroke-width: 1px; fill: rgb(34, 36, 42);"/></marker></defs><path data-corner-radius="5" style="fill: none; stroke-linecap: round; stroke-linejoin: round; stroke: rgb(34, 36, 42); stroke-width: 2px; marker-end: url('#marker-2div9v8bu8vb216f1dxgj4ms1');" d="M573,452L665,452"/></g><path d="M573,452L665,452" class="djs-hit djs-hit-stroke" style="fill: none; stroke-opacity: 0; stroke: white; stroke-width: 15px;"/><rect x="568" y="447" rx="4" width="102" height="10" class="djs-outline" style="fill: none;"/></g></g><g class="djs-group"><g class="djs-element djs-shape" data-element-id="Flow_1dc0e7b_label" style="display: block;" transform="matrix(1 0 0 1 657 396)"><g class="djs-visual"><text lineHeight="1.2" class="djs-label" style="font-family: Arial, sans-serif; font-size: 11px; font-weight: normal; fill: rgb(34, 36, 42);"><tspan x="0" y="9.899999999999999">Informação é </tspan><tspan x="15.275881469249725" y="23.099999999999998">válida?</tspan></text></g><rect class="djs-hit djs-hit-all" x="0" y="0" width="65" height="27" style="fill: none; stroke-opacity: 0; stroke: white; stroke-width: 15px;"/><rect x="-5" y="-5" rx="4" width="75" height="37" class="djs-outline" style="fill: none;"/></g></g><g class="djs-group"><g class="djs-element djs-connection" data-element-id="Flow_0kq9nih" style="display: block;"><g class="djs-visual"><defs><marker id="marker-clnvawlrpkpf5lhz6w2lbjpqs" viewBox="0 0 20 20" refX="11" refY="10" markerWidth="10" markerHeight="10" orient="auto"><path d="M 1 5 L 11 10 L 1 15 Z" style="stroke-linecap: round; stroke-linejoin: round; stroke: rgb(34, 36, 42); stroke-width: 1px; fill: rgb(34, 36, 42);"/></marker></defs><path data-corner-radius="5" style="fill: none; stroke-linecap: round; stroke-linejoin: round; stroke: rgb(34, 36, 42); stroke-width: 2px; marker-end: url('#marker-clnvawlrpkpf5lhz6w2lbjpqs');" d="M715,452L870,452"/></g><path d="M715,452L870,452" class="djs-hit djs-hit-stroke" style="fill: none; stroke-opacity: 0; stroke: white; stroke-width: 15px;"/><rect x="710" y="447" rx="4" width="165" height="10" class="djs-outline" style="fill: none;"/></g></g><g class="djs-group"><g class="djs-element djs-shape" data-element-id="Flow_0kq9nih_label" style="display: block;" transform="matrix(1 0 0 1 779 433)"><g class="djs-visual"><text lineHeight="1.2" class="djs-label" style="font-family: Arial, sans-serif; font-size: 11px; font-weight: normal; fill: rgb(34, 36, 42);"><tspan x="0" y="9.899999999999999">Não</tspan></text></g><rect class="djs-hit djs-hit-all" x="0" y="0" width="21" height="14" style="fill: none; stroke-opacity: 0; stroke: white; stroke-width: 15px;"/><rect x="-5" y="-5" rx="4" width="31" height="24" class="djs-outline" style="fill: none;"/></g></g><g class="djs-group"><g class="djs-element djs-connection" data-element-id="Flow_1gfd8j0" style="display: block;"><g class="djs-visual"><defs><marker id="marker-97ykrpk6qu38vd5a876ispns7" viewBox="0 0 20 20" refX="11" refY="10" markerWidth="10" markerHeight="10" orient="auto"><path d="M 1 5 L 11 10 L 1 15 Z" style="stroke-linecap: round; stroke-linejoin: round; stroke: rgb(34, 36, 42); stroke-width: 1px; fill: rgb(34, 36, 42);"/></marker></defs><path data-corner-radius="5" style="fill: none; stroke-linecap: round; stroke-linejoin: round; stroke: rgb(34, 36, 42); stroke-width: 2px; marker-end: url('#marker-97ykrpk6qu38vd5a876ispns7');" d="M690,477L690,530"/></g><path d="M690,477L690,530" class="djs-hit djs-hit-stroke" style="fill: none; stroke-opacity: 0; stroke: white; stroke-width: 15px;"/><rect x="685" y="472" rx="4" width="10" height="63" class="djs-outline" style="fill: none;"/></g></g><g class="djs-group"><g class="djs-element djs-shape" data-element-id="Flow_1gfd8j0_label" style="display: block;" transform="matrix(1 0 0 1 700 489)"><g class="djs-visual"><text lineHeight="1.2" class="djs-label" style="font-family: Arial, sans-serif; font-size: 11px; font-weight: normal; fill: rgb(34, 36, 42);"><tspan x="0" y="9.899999999999999">Sim</tspan></text></g><rect class="djs-hit djs-hit-all" x="0" y="0" width="20" height="14" style="fill: none; stroke-opacity: 0; stroke: white; stroke-width: 15px;"/><rect x="-5" y="-5" rx="4" width="30" height="24" class="djs-outline" style="fill: none;"/></g></g><g class="djs-group"><g class="djs-element djs-connection" data-element-id="Flow_1wxsnve" style="display: block;"><g class="djs-visual"><defs><marker id="marker-18ny8typc1xy7fzmu8c4n3hji" viewBox="0 0 20 20" refX="11" refY="10" markerWidth="10" markerHeight="10" orient="auto"><path d="M 1 5 L 11 10 L 1 15 Z" style="stroke-linecap: round; stroke-linejoin: round; stroke: rgb(34, 36, 42); stroke-width: 1px; fill: rgb(34, 36, 42);"/></marker></defs><path data-corner-radius="5" style="fill: none; stroke-linecap: round; stroke-linejoin: round; stroke: rgb(34, 36, 42); stroke-width: 2px; marker-end: url('#marker-18ny8typc1xy7fzmu8c4n3hji');" d="M690,610L690,690"/></g><path d="M690,610L690,690" class="djs-hit djs-hit-stroke" style="fill: none; stroke-opacity: 0; stroke: white; stroke-width: 15px;"/><rect x="685" y="605" rx="4" width="10" height="90" class="djs-outline" style="fill: none;"/></g></g><g class="djs-group"><g class="djs-element djs-connection" data-element-id="Flow_1f5i8m4" style="display: block;"><g class="djs-visual"><defs><marker id="marker-b5gqt1eexure452n31iu3efrp" viewBox="0 0 20 20" refX="11" refY="10" markerWidth="10" markerHeight="10" orient="auto"><path d="M 1 5 L 11 10 L 1 15 Z" style="stroke-linecap: round; stroke-linejoin: round; stroke: rgb(34, 36, 42); stroke-width: 1px; fill: rgb(34, 36, 42);"/></marker></defs><path data-corner-radius="5" style="fill: none; stroke-linecap: round; stroke-linejoin: round; stroke: rgb(34, 36, 42); stroke-width: 2px; marker-end: url('#marker-b5gqt1eexure452n31iu3efrp');" d="M740,730L810,730"/></g><path d="M740,730L810,730" class="djs-hit djs-hit-stroke" style="fill: none; stroke-opacity: 0; stroke: white; stroke-width: 15px;"/><rect x="735" y="725" rx="4" width="80" height="10" class="djs-outline" style="fill: none;"/></g></g><g class="djs-group"><g class="djs-element djs-connection" data-element-id="Flow_0sn1lnq" style="display: block;"><g class="djs-visual"><defs><marker id="marker-edmvinqmr3y12xwddopeccxv3" viewBox="0 0 20 20" refX="11" refY="10" markerWidth="10" markerHeight="10" orient="auto"><path d="M 1 5 L 11 10 L 1 15 Z" style="stroke-linecap: round; stroke-linejoin: round; stroke: rgb(34, 36, 42); stroke-width: 1px; fill: rgb(34, 36, 42);"/></marker></defs><path data-corner-radius="5" style="fill: none; stroke-linecap: round; stroke-linejoin: round; stroke: rgb(34, 36, 42); stroke-width: 2px; marker-end: url('#marker-edmvinqmr3y12xwddopeccxv3');" d="M910,730L980,730"/></g><path d="M910,730L980,730" class="djs-hit djs-hit-stroke" style="fill: none; stroke-opacity: 0; stroke: white; stroke-width: 15px;"/><rect x="905" y="725" rx="4" width="80" height="10" class="djs-outline" style="fill: none;"/></g></g><g class="djs-group"><g class="djs-element djs-connection" data-element-id="Flow_0kegzg2" style="display: block;"><g class="djs-visual"><defs><marker id="marker-0dilda567f9e6z2hqs6mthcot" viewBox="0 0 20 20" refX="11" refY="10" markerWidth="10" markerHeight="10" orient="auto"><path d="M 1 5 L 11 10 L 1 15 Z" style="stroke-linecap: round; stroke-linejoin: round; stroke: rgb(34, 36, 42); stroke-width: 1px; fill: rgb(34, 36, 42);"/></marker></defs><path data-corner-radius="5" style="fill: none; stroke-linecap: round; stroke-linejoin: round; stroke: rgb(34, 36, 42); stroke-width: 2px; marker-end: url('#marker-0dilda567f9e6z2hqs6mthcot');" d="M1080,730L1150,730"/></g><path d="M1080,730L1150,730" class="djs-hit djs-hit-stroke" style="fill: none; stroke-opacity: 0; stroke: white; stroke-width: 15px;"/><rect x="1075" y="725" rx="4" width="80" height="10" class="djs-outline" style="fill: none;"/></g></g><g class="djs-group"><g class="djs-element djs-connection" data-element-id="Flow_0ifbpxb" style="display: block;"><g class="djs-visual"><defs><marker id="marker-34dp4m3l4ath02m1yoqdsj8qr" viewBox="0 0 20 20" refX="11" refY="10" markerWidth="10" markerHeight="10" orient="auto"><path d="M 1 5 L 11 10 L 1 15 Z" style="stroke-linecap: round; stroke-linejoin: round; stroke: rgb(34, 36, 42); stroke-width: 1px; fill: rgb(34, 36, 42);"/></marker></defs><path data-corner-radius="5" style="fill: none; stroke-linecap: round; stroke-linejoin: round; stroke: rgb(34, 36, 42); stroke-width: 2px; marker-end: url('#marker-34dp4m3l4ath02m1yoqdsj8qr');" d="M970,452L1042,452"/></g><path d="M970,452L1042,452" class="djs-hit djs-hit-stroke" style="fill: none; stroke-opacity: 0; stroke: white; stroke-width: 15px;"/><rect x="965" y="447" rx="4" width="82" height="10" class="djs-outline" style="fill: none;"/></g></g><g class="djs-group"><g class="djs-element djs-connection" data-element-id="Flow_1igi4sk" style="display: block;"><g class="djs-visual"><defs><marker id="marker-0z0ubabxpa2w7ys40xzu3ukke" viewBox="0 0 20 20" refX="11" refY="10" markerWidth="10" markerHeight="10" orient="auto"><path d="M 1 5 L 11 10 L 1 15 Z" style="stroke-linecap: round; stroke-linejoin: round; stroke: rgb(34, 36, 42); stroke-width: 1px; fill: rgb(34, 36, 42);"/></marker></defs><path data-corner-radius="5" style="fill: none; stroke-linecap: round; stroke-linejoin: round; stroke: rgb(34, 36, 42); stroke-width: 2px; marker-end: url('#marker-0z0ubabxpa2w7ys40xzu3ukke');" d="M1250,730L1322,730"/></g><path d="M1250,730L1322,730" class="djs-hit djs-hit-stroke" style="fill: none; stroke-opacity: 0; stroke: white; stroke-width: 15px;"/><rect x="1245" y="725" rx="4" width="82" height="10" class="djs-outline" style="fill: none;"/></g></g></g></g><g class="djs-group"><g class="djs-element djs-shape" data-element-id="TextAnnotation_0gakgdp" style="display: block;" transform="matrix(1 0 0 1 460 310)"><g class="djs-visual"><rect x="0" y="0" width="210" height="84" rx="0" ry="0" style="stroke-linecap: round; stroke-linejoin: round; stroke: none; stroke-width: 2px; fill: none;"/><path d="m 0, 0 m 10,0 l -10,0 l 0,84 l 10,0" style="fill: none; stroke-linecap: round; stroke-linejoin: round; stroke: rgb(34, 36, 42); stroke-width: 2px;"/><text lineHeight="1.2" class="djs-label" style="font-family: Arial, sans-serif; font-size: 12px; font-weight: normal; fill: rgb(34, 36, 42);"><tspan x="7" y="17.799999999999997">ID completa do utilizador: Nome, </tspan><tspan x="7" y="32.199999999999996">departamento, Nº Mecanográfico, </tspan><tspan x="7" y="46.599999999999994">contactos: Telefone e E-mail </tspan><tspan x="7" y="60.99999999999999">profissional. Origem: </tspan><tspan x="7" y="75.39999999999999">Comarca/Tribunal</tspan></text></g><rect class="djs-hit djs-hit-all" x="0" y="0" width="210" height="84" style="fill: none; stroke-opacity: 0; stroke: white; stroke-width: 15px;"/><rect x="-5" y="-5" rx="4" width="220" height="94" class="djs-outline" style="fill: none;"/></g></g><g class="djs-group"><g class="djs-element djs-connection" data-element-id="Association_006lcdl" style="display: block;"><g class="djs-visual"><path data-corner-radius="5" style="fill: none; stroke-linecap: round; stroke-linejoin: round; stroke: rgb(34, 36, 42); stroke-width: 2px; stroke-dasharray: 0, 5;" d="M516,412L516,394"/></g><path d="M516,412L516,394" class="djs-hit djs-hit-stroke" style="fill: none; stroke-opacity: 0; stroke: white; stroke-width: 15px;"/><rect x="511" y="389" rx="4" width="10" height="28" class="djs-outline" style="fill: none;"/></g></g><g class="djs-group"><g class="djs-element djs-connection" data-element-id="Flow_18ekgu9" style="display: block;"><g class="djs-visual"><defs><marker id="marker-4dm6u7o3h8q2r9q1j9w8b84r8" viewBox="0 0 20 20" refX="8.5" refY="5" markerWidth="20" markerHeight="20" orient="auto"><path d="m 1 5 l 0 -3 l 7 3 l -7 3 z" style="stroke-linecap: round; stroke-linejoin: round; stroke: rgb(34, 36, 42); stroke-width: 1px; fill: white; stroke-dasharray: 10000, 1;"/></marker><marker id="marker-dtsvxvkl6f9575nhkw30835k8" viewBox="0 0 20 20" refX="6" refY="6" markerWidth="20" markerHeight="20" orient="auto"><circle cx="6" cy="6" r="3.5" style="stroke-linecap: round; stroke-linejoin: round; stroke: rgb(34, 36, 42); stroke-width: 1px; fill: white; stroke-dasharray: 10000, 1;"/></marker></defs><path data-corner-radius="5" style="fill: none; stroke-linecap: round; stroke-linejoin: round; stroke: rgb(34, 36, 42); stroke-width: 1.5px; marker-end: url('#marker-4dm6u7o3h8q2r9q1j9w8b84r8'); marker-start: url('#marker-dtsvxvkl6f9575nhkw30835k8'); stroke-dasharray: 10, 11;" d="M340,180L340,412"/></g><path d="M340,180L340,412" class="djs-hit djs-hit-stroke" style="fill: none; stroke-opacity: 0; stroke: white; stroke-width: 15px;"/><rect x="335" y="175" rx="4" width="10" height="242" class="djs-outline" style="fill: none;"/></g></g></svg>