<?xml version="1.0" encoding="utf-8"?>
<!-- created with dmn-js / http://bpmn.io -->
<!DOCTYPE svg PUBLIC "-//W3C//DTD SVG 1.1//EN" "http://www.w3.org/Graphics/SVG/1.1/DTD/svg11.dtd">
<svg xmlns="http://www.w3.org/2000/svg" xmlns:xlink="http://www.w3.org/1999/xlink" width="935" height="472" viewBox="152 45 935 472" version="1.1"><defs><pattern id="djs-grid-pattern-289815" width="10" height="10" patternUnits="userSpaceOnUse"><circle cx="0.5" cy="0.5" r="0.5" style="fill: rgb(204, 204, 204);"></circle></pattern><marker id="information-requirement-end-white-hsl_225_10_15_-9po5rbnaqf0a0utg4nmxzzhip" viewBox="0 0 20 20" refX="11" refY="10" markerWidth="20" markerHeight="20" orient="auto"><path d="M 1 5 L 11 10 L 1 15 Z" style="stroke-width: 1px; stroke-linecap: round; stroke-dasharray: 10000, 1; fill: rgb(34, 36, 42); stroke: none;"></path></marker></defs><g class="djs-group"><g class="djs-element djs-shape" data-element-id="Decision_0gl9g18" style="display: block;" transform="matrix(1 0 0 1 580 50)"><g class="djs-visual"><rect x="0" y="0" width="180" height="80" rx="0" ry="0" style="stroke: rgb(34, 36, 42); stroke-width: 2px; fill: white;"/><text lineHeight="1.2" class="djs-label" style="font-family: Arial, sans-serif; font-size: 12px; font-weight: normal; fill: rgb(34, 36, 42);"><tspan x="6.62890625" y="43.599999999999994">Categorizar e Prioritizar Pedido</tspan></text></g><rect class="djs-hit djs-hit-all" x="0" y="0" width="180" height="80" style="fill: none; stroke-opacity: 0; stroke: white; stroke-width: 15px;"/><rect x="-5" y="-5" rx="4" width="190" height="90" class="djs-outline" style="fill: none;"/></g></g><g class="djs-group"><g class="djs-element djs-shape" data-element-id="InputData_11sa5ug" style="display: block;" transform="matrix(1 0 0 1 157 357)"><g class="djs-visual"><rect x="0" y="0" width="125" height="45" rx="22" ry="22" style="stroke: rgb(34, 36, 42); stroke-width: 2px; fill: white;"/><text lineHeight="1.2" class="djs-label" style="font-family: Arial, sans-serif; font-size: 12px; font-weight: normal; fill: rgb(34, 36, 42);"><tspan x="34.15234375" y="26.1">Fabricante</tspan></text></g><rect class="djs-hit djs-hit-all" x="0" y="0" width="125" height="45" style="fill: none; stroke-opacity: 0; stroke: white; stroke-width: 15px;"/><rect x="-5" y="-5" rx="27" width="135" height="55" class="djs-outline" style="fill: none;"/></g></g><g class="djs-group"><g class="djs-element djs-shape" data-element-id="InputData_1wc7wa6" style="display: block;" transform="matrix(1 0 0 1 397 357)"><g class="djs-visual"><rect x="0" y="0" width="125" height="45" rx="22" ry="22" style="stroke: rgb(34, 36, 42); stroke-width: 2px; fill: white;"/><text lineHeight="1.2" class="djs-label" style="font-family: Arial, sans-serif; font-size: 12px; font-weight: normal; fill: rgb(34, 36, 42);"><tspan x="33.8125" y="26.1">Tecnologia</tspan></text></g><rect class="djs-hit djs-hit-all" x="0" y="0" width="125" height="45" style="fill: none; stroke-opacity: 0; stroke: white; stroke-width: 15px;"/><rect x="-5" y="-5" rx="27" width="135" height="55" class="djs-outline" style="fill: none;"/></g></g><g class="djs-group"><g class="djs-element djs-shape" data-element-id="InputData_18if5ug" style="display: block;" transform="matrix(1 0 0 1 607 357)"><g class="djs-visual"><rect x="0" y="0" width="125" height="45" rx="22" ry="22" style="stroke: rgb(34, 36, 42); stroke-width: 2px; fill: white;"/><text lineHeight="1.2" class="djs-label" style="font-family: Arial, sans-serif; font-size: 12px; font-weight: normal; fill: rgb(34, 36, 42);"><tspan x="42.4921875" y="26.1">Serviço</tspan></text></g><rect class="djs-hit djs-hit-all" x="0" y="0" width="125" height="45" style="fill: none; stroke-opacity: 0; stroke: white; stroke-width: 15px;"/><rect x="-5" y="-5" rx="27" width="135" height="55" class="djs-outline" style="fill: none;"/></g></g><g class="djs-group"><g class="djs-element djs-shape" data-element-id="InputData_0cgwiot" style="display: block;" transform="matrix(1 0 0 1 757 467)"><g class="djs-visual"><rect x="0" y="0" width="125" height="45" rx="22" ry="22" style="stroke: rgb(34, 36, 42); stroke-width: 2px; fill: white;"/><text lineHeight="1.2" class="djs-label" style="font-family: Arial, sans-serif; font-size: 12px; font-weight: normal; fill: rgb(34, 36, 42);"><tspan x="41.15625" y="26.1">Impacto</tspan></text></g><rect class="djs-hit djs-hit-all" x="0" y="0" width="125" height="45" style="fill: none; stroke-opacity: 0; stroke: white; stroke-width: 15px;"/><rect x="-5" y="-5" rx="27" width="135" height="55" class="djs-outline" style="fill: none;"/></g></g><g class="djs-group"><g class="djs-element djs-shape" data-element-id="InputData_1qj7ugr" style="display: block;" transform="matrix(1 0 0 1 957 467)"><g class="djs-visual"><rect x="0" y="0" width="125" height="45" rx="22" ry="22" style="stroke: rgb(34, 36, 42); stroke-width: 2px; fill: white;"/><text lineHeight="1.2" class="djs-label" style="font-family: Arial, sans-serif; font-size: 12px; font-weight: normal; fill: rgb(34, 36, 42);"><tspan x="38.48828125" y="26.1">Urgência</tspan></text></g><rect class="djs-hit djs-hit-all" x="0" y="0" width="125" height="45" style="fill: none; stroke-opacity: 0; stroke: white; stroke-width: 15px;"/><rect x="-5" y="-5" rx="27" width="135" height="55" class="djs-outline" style="fill: none;"/></g></g><g class="djs-group"><g class="djs-element djs-shape" data-element-id="Decision_0yzsvdr" style="display: block;" transform="matrix(1 0 0 1 830 330)"><g class="djs-visual"><rect x="0" y="0" width="180" height="80" rx="0" ry="0" style="stroke: rgb(34, 36, 42); stroke-width: 2px; fill: white;"/><text lineHeight="1.2" class="djs-label" style="font-family: Arial, sans-serif; font-size: 12px; font-weight: normal; fill: rgb(34, 36, 42);"><tspan x="62.6484375" y="43.599999999999994">Prioridade</tspan></text></g><rect class="djs-hit djs-hit-all" x="0" y="0" width="180" height="80" style="fill: none; stroke-opacity: 0; stroke: white; stroke-width: 15px;"/><rect x="-5" y="-5" rx="4" width="190" height="90" class="djs-outline" style="fill: none;"/></g></g><g class="djs-group"><g class="djs-element djs-connection" data-element-id="InformationRequirement_1qr9eu0" style="display: block;"><g class="djs-visual"><path style="fill: none; stroke: rgb(34, 36, 42); stroke-width: 1px; stroke-linecap: round; stroke-linejoin: round; marker-end: url('#information-requirement-end-white-hsl_225_10_15_-9po5rbnaqf0a0utg4nmxzzhip');" d="M220,357L616,150L616,130"/></g><path d="M220,357L616,150L616,130" class="djs-hit djs-hit-stroke" style="fill: none; stroke-opacity: 0; stroke: white; stroke-width: 15px;"/><rect x="215" y="125" rx="4" width="406" height="237" class="djs-outline" style="fill: none;"/></g></g><g class="djs-group"><g class="djs-element djs-connection" data-element-id="InformationRequirement_1xdl0r4" style="display: block;"><g class="djs-visual"><path style="fill: none; stroke: rgb(34, 36, 42); stroke-width: 1px; stroke-linecap: round; stroke-linejoin: round; marker-end: url('#information-requirement-end-white-hsl_225_10_15_-9po5rbnaqf0a0utg4nmxzzhip');" d="M460,357L652,150L652,130"/></g><path d="M460,357L652,150L652,130" class="djs-hit djs-hit-stroke" style="fill: none; stroke-opacity: 0; stroke: white; stroke-width: 15px;"/><rect x="455" y="125" rx="4" width="202" height="237" class="djs-outline" style="fill: none;"/></g></g><g class="djs-group"><g class="djs-element djs-connection" data-element-id="InformationRequirement_0tj6ixt" style="display: block;"><g class="djs-visual"><path style="fill: none; stroke: rgb(34, 36, 42); stroke-width: 1px; stroke-linecap: round; stroke-linejoin: round; marker-end: url('#information-requirement-end-white-hsl_225_10_15_-9po5rbnaqf0a0utg4nmxzzhip');" d="M670,357L688,150L688,130"/></g><path d="M670,357L688,150L688,130" class="djs-hit djs-hit-stroke" style="fill: none; stroke-opacity: 0; stroke: white; stroke-width: 15px;"/><rect x="665" y="125" rx="4" width="28" height="237" class="djs-outline" style="fill: none;"/></g></g><g class="djs-group"><g class="djs-element djs-connection" data-element-id="InformationRequirement_15sollw" style="display: block;"><g class="djs-visual"><path style="fill: none; stroke: rgb(34, 36, 42); stroke-width: 1px; stroke-linecap: round; stroke-linejoin: round; marker-end: url('#information-requirement-end-white-hsl_225_10_15_-9po5rbnaqf0a0utg4nmxzzhip');" d="M920,330L724,150L724,130"/></g><path d="M920,330L724,150L724,130" class="djs-hit djs-hit-stroke" style="fill: none; stroke-opacity: 0; stroke: white; stroke-width: 15px;"/><rect x="719" y="125" rx="4" width="206" height="210" class="djs-outline" style="fill: none;"/></g></g><g class="djs-group"><g class="djs-element djs-connection" data-element-id="InformationRequirement_08glhwm" style="display: block;"><g class="djs-visual"><path style="fill: none; stroke: rgb(34, 36, 42); stroke-width: 1px; stroke-linecap: round; stroke-linejoin: round; marker-end: url('#information-requirement-end-white-hsl_225_10_15_-9po5rbnaqf0a0utg4nmxzzhip');" d="M820,467L890,430L890,410"/></g><path d="M820,467L890,430L890,410" class="djs-hit djs-hit-stroke" style="fill: none; stroke-opacity: 0; stroke: white; stroke-width: 15px;"/><rect x="815" y="405" rx="4" width="80" height="67" class="djs-outline" style="fill: none;"/></g></g><g class="djs-group"><g class="djs-element djs-connection" data-element-id="InformationRequirement_1vdvtuz" style="display: block;"><g class="djs-visual"><path style="fill: none; stroke: rgb(34, 36, 42); stroke-width: 1px; stroke-linecap: round; stroke-linejoin: round; marker-end: url('#information-requirement-end-white-hsl_225_10_15_-9po5rbnaqf0a0utg4nmxzzhip');" d="M1020,467L950,430L950,410"/></g><path d="M1020,467L950,430L950,410" class="djs-hit djs-hit-stroke" style="fill: none; stroke-opacity: 0; stroke: white; stroke-width: 15px;"/><rect x="945" y="405" rx="4" width="80" height="67" class="djs-outline" style="fill: none;"/></g></g></svg>